<?xml version="1.0" encoding="UTF-8"?>
<svg version="1.1" viewBox="0 0 1600 584" width="1280" height="1280" xmlns="http://www.w3.org/2000/svg">
<path transform="translate(591 17.3)" d="m0 0c6.67 3.84 9.77 7.46 12 14.7 0.294 0.71 0.588 1.42 0.891 2.15 5.02 12.6 1.54 26.6-2.89 38.8-0.452 1.33-0.903 2.66-1.35 3.99-2.71 7.97-5.55 15.6-9.65 23h-2c-0.273 0.905-0.273 0.905-0.551 1.83-1.35 4.29-2.55 7.67-5.45 11.2-0.636 1.32-0.636 1.32-1.29 2.67-1.92 3.73-4.18 7-6.65 10.4-0.43 0.599-0.86 1.2-1.3 1.81-2.49 3.46-5.09 6.8-7.76 10.1-0.66 0.99-1.32 1.98-2 3h-2c-0.206 0.66-0.413 1.32-0.625 2-2.46 5.37-6.18 9.87-10.4 14-1.05 1.18-2.09 2.37-3.12 3.56-4.23 4.87-8.55 9.65-12.9 14.4-0.64 0.723-1.28 1.45-1.94 2.19-5.52 6.2-11.2 12.1-17.1 18-0.846 0.85-1.69 1.7-2.56 2.58-4.96 4.95-10 9.68-15.4 14.2-0.812 0.731-1.62 1.46-2.46 2.21-0.632 0.568-1.26 1.14-1.91 1.72-0.971 0.88-0.971 0.88-1.96 1.78-1.66 1.29-1.66 1.29-3.66 1.29l-0.75 1.88c-1.49 2.53-2.69 2.84-5.25 4.12-0.309 0.639-0.619 1.28-0.938 1.94-1.44 2.8-3.36 3.54-6.06 5.06-1.02 0.983-2.02 1.99-3 3-4.97 4.5-10.1 8.82-15.2 13.2-0.594 0.511-1.19 1.02-1.8 1.55-1.14 0.977-2.28 1.95-3.43 2.92-1.45 1.23-2.89 2.47-4.32 3.71-2.26 1.64-2.26 1.64-5.26 1.64-0.34 0.928-0.34 0.928-0.688 1.88-1.31 2.12-1.31 2.12-3.79 2.96-2.68 0.918-2.68 0.918-3.56 3.31-0.29 1.32-0.29 1.32-0.586 2.67-0.228 0.986-0.456 1.97-0.691 2.99-0.226 1.06-0.451 2.11-0.684 3.2l-0.777 3.23c-1.48 6.14-2.72 12.3-3.7 18.5-0.527 2.24-0.527 2.24-2.53 5.24-0.454 2.28-0.454 2.28-0.625 4.69-0.0748 0.808-0.15 1.62-0.227 2.45-0.049 0.615-0.098 1.23-0.148 1.86 5.36 2.68 9.01 3.32 15 3 0.33-0.99 0.66-1.98 1-3 3.17-1.99 6.61-3.44 10-5 0.651-0.338 1.3-0.675 1.97-1.02 5.39-2.67 9.51-1.82 15 0.0234 0.688 2.06 0.688 2.06 1 4 1.32 0.33 2.64 0.66 4 1 1.02 5.86 1.75 11.7 2.5 17.6 0.398 3.35 0.398 3.35 1.5 6.36h2c0.33 0.66 0.66 1.32 1 2 4.47-0.827 7.83-2.75 10.9-6.06 2.5-2.35 4.85-2.87 8.06-3.94 0.33-0.99 0.66-1.98 1-3 2.31-1.45 4.59-2.74 7-4 1.24-0.677 2.48-1.36 3.72-2.04 1.26-0.677 2.52-1.35 3.78-2.03 0.938-0.508 0.938-0.508 1.89-1.03 5.73-3.07 11.3-5.91 17.8-6.97 2.49-0.413 4.46-0.75 6.7-1.95 3.61-1.69 7.31-1.37 11.2-1.36 1.28 2.42e-4 1.28 2.42e-4 2.58 4.88e-4 6.52 0.118 11.5 1.34 17.3 4.37 1.99 0.687 3.99 1.37 6 2v2c1.99 1.35 3.99 2.68 6 4 2.37 2.12 2.37 2.12 4 4v2c5.39 1.09 9.02 0.766 14.2-0.875 1.2-0.369 2.4-0.737 3.64-1.12 2.04-0.661 4.08-1.33 6.11-2.01 0.0748-0.559 0.15-1.12 0.227-1.7 1.13-6.92 3.58-12.9 6.43-19.3 1.38-2.97 1.38-2.97 2.34-6h2c0.206-0.825 0.413-1.65 0.625-2.5 1.73-4.39 4.15-8.05 7.38-11.5h2c0.224-0.578 0.449-1.16 0.68-1.75 5.2-8.86 18.9-14.2 28.3-17.2 13.6-3.07 26.4-2.3 39 4 1.22 0.557 1.22 0.557 2.46 1.12 6.32 2.97 10.6 5.98 14.5 11.9 2.05 1.19 2.05 1.19 4 2v3c0.928 0.681 0.928 0.681 1.88 1.38 2.55 1.95 3.15 3.61 4.12 6.62h2c0.186 1.45 0.186 1.45 0.375 2.94 0.206 1.01 0.413 2.02 0.625 3.06 0.66 0.33 1.32 0.66 2 1 0.66 0.33 1.32 0.66 2 1 0.34 1.67 0.672 3.33 1 5 0.88 1.96 1.82 3.9 2.81 5.81 0.541 1.06 1.08 2.13 1.64 3.22 0.868 1.66 1.75 3.32 2.66 4.96 2.87 5.28 4.5 10.9 6.14 16.6 0.529 1.81 1.13 3.59 1.75 5.37 2.83 1.42 5.47 1.35 8.62 1.56 1.19 0.0838 2.38 0.168 3.6 0.254 0.915 0.0606 1.83 0.121 2.77 0.184v-2c1.22-0.242 2.44-0.485 3.69-0.734 1.62-0.338 3.25-0.676 4.87-1.02 0.8-0.157 1.6-0.315 2.42-0.477 5.39-1.14 9.3-2.94 14-5.77h3c0.138-1.3 0.276-2.6 0.418-3.94 2.47-22.1 2.47-22.1 6.57-30 1.14-2.29 1.9-4.6 2.7-7.04 3.74-10.6 9.74-20.3 15.3-30h2c0.268-0.731 0.536-1.46 0.812-2.21 1.16-2.72 2.5-4.92 4.19-7.35 1.9-2.74 3.58-5.42 5-8.44h2c0.227-0.557 0.454-1.11 0.688-1.69 2.91-5.12 8.08-9.05 12.4-13.1 0.516-0.494 1.03-0.987 1.56-1.5 2.76-2.56 4.71-3.98 8.37-4.75 0.33-0.99 0.66-1.98 1-3 3.97-2.22 7.51-2.47 12-2 5.68 3.05 5.68 3.05 7 7 0.723 8.11-0.718 15.3-3 23-0.487 1.72-0.487 1.72-0.984 3.47-1.56 5.31-3.1 9.81-6.02 14.5-0.639 1.53-1.24 3.07-1.81 4.62-1.87 4.81-4.17 9.25-6.71 13.7-0.883 1.57-1.74 3.16-2.55 4.77-3.19 6.24-7.39 11.7-11.6 17.2-2.18 2.84-4.21 5.56-6.02 8.66-0.415 0.665-0.83 1.33-1.26 2.02h-2c-0.0825 0.578-0.165 1.16-0.25 1.75-0.968 2.9-2.44 4.29-4.75 6.25h-2c-0.33 0.99-0.66 1.98-1 3-1.98 1.36-3.98 2.69-6 4-1.37 1.29-2.71 2.62-4 4-0.742 0.639-1.48 1.28-2.25 1.94-1.93 1.92-1.93 1.92-2.16 4.43 0.572 3.71 2.2 4.65 5.16 6.89l2.67 2.08c2.31 1.5 3.89 2.25 6.58 2.67v2c3.98-0.138 7.96-0.287 11.9-0.438 1.14-0.0393 2.27-0.0786 3.44-0.119l3.27-0.127c1-0.0367 2-0.0733 3.03-0.111 2.28 0.048 2.28 0.048 3.32-1.21 2.68-0.287 5.36-0.448 8.04-0.621 3.19-0.409 5.91-1.36 8.96-2.38 2.45-0.425 4.91-0.799 7.38-1.12 1.25-0.168 2.49-0.335 3.77-0.508 0.941-0.121 1.88-0.242 2.85-0.367v-2c0.964-0.326 1.93-0.652 2.92-0.988 1.28-0.441 2.55-0.882 3.83-1.32 0.634-0.213 1.27-0.427 1.92-0.646 3.6-1.26 6.39-2.63 9.33-5.04 4.9-2.5 8.5-3.34 14-3v-2c6.52-2.17 12.4-3.27 18.9-0.625 3.06 1.62 3.06 1.62 4.06 3.62 4.37-2.02 8.56-4.41 11.8-8 3.96-3.62 9.15-5.32 14.2-7-0.0696-1.17-0.139-2.34-0.211-3.55-0.409-9.99 0.0244-17.1 6.21-25.4h2c0.0696-0.597 0.139-1.19 0.211-1.81 1.75-4.86 8.39-6.96 12.8-9.21 3.94-1.83 7.73-2.55 12-2.98v-2c3.65-0.0289 7.29-0.0468 10.9-0.0625 1.04-0.00838 2.08-0.0168 3.15-0.0254 1.48-0.00483 1.48-0.00483 3-0.00977 1.37-0.00786 1.37-0.00786 2.78-0.0159 2.13 0.114 2.13 0.114 3.13 1.11 1.69 0.32 3.4 0.588 5.1 0.832 1.05 0.159 2.1 0.318 3.18 0.482 2.21 0.328 4.42 0.649 6.62 0.961 6.33 0.978 10.7 2.25 16.1 5.72 1.96 0.802 3.94 1.56 5.94 2.25 1.44 0.503 1.44 0.503 2.9 1.02 0.713 0.242 1.43 0.485 2.16 0.734v2c1.27 0.0928 1.27 0.0928 2.56 0.188 4.19 0.99 7.41 2.72 10.4 5.81 1.28 3.64 1.28 7.17 1 11-3 2-3 2-6.38 1.88-4-0.965-5.48-2.33-8.62-4.88-2.27-0.876-4.56-1.58-6.88-2.29-2.12-0.715-2.12-0.715-4.49-2.21-6.16-3.52-13.6-4.72-20.6-5.5v-2c-7.08-0.909-14.1-1.11-21.2-1.12-0.851-0.00451-1.7-0.00902-2.58-0.0137-4.83 0.0113-9.41 0.328-14.2 1.14-0.33 0.99-0.66 1.98-1 3-2.71 1.51-5.44 2.77-8.31 3.94-1.81 0.902-1.81 0.902-2.28 2.67-0.561 3.27-0.62 6.45-0.66 9.77-0.0387 1.93-0.0387 1.93-0.0781 3.9 0.352 4 1.2 6.35 3.33 9.73l3 2c0.474 0.495 0.949 0.99 1.44 1.5 1.5 1.63 1.5 1.63 3.69 2.38 0.619 0.371 1.24 0.742 1.88 1.12 0.562 2.31 0.562 2.31 1 5 1.81 3.68 1.81 3.68 5 6 0.124 0.928 0.247 1.86 0.375 2.81 0.736 3.75 1.95 4.59 4.62 7.19 0.75 2.75 0.75 2.75 1 5 3.76 0 6.93-3.07 9.68-5.47 3.28-2.16 6.75-3.07 10.5-4.15 4.78-1.05 4.78-1.05 8.81-3.38 1.63-0.087 3.27-0.107 4.91-0.0977 0.989 0.00322 1.98 0.00645 3 0.00977 1.56 0.0126 1.56 0.0126 3.15 0.0254 1.57 0.00677 1.57 0.00677 3.17 0.0137 2.59 0.0118 5.18 0.0283 7.77 0.0488v2c1 0.122 2 0.245 3.04 0.371 3.91 0.559 7.61 1.57 11.4 2.69 1.24 0.362 2.47 0.724 3.75 1.1 0.929 0.277 1.86 0.554 2.82 0.84v2c1.81-0.14 3.63-0.287 5.44-0.438 1.01-0.0812 2.02-0.162 3.06-0.246 2.44-0.0485 2.44-0.0485 3.5-1.32 2.56-0.352 5.1-0.645 7.67-0.902 0.786-0.082 1.57-0.164 2.38-0.249 2.56-0.266 5.13-0.526 7.7-0.787 1.74-0.18 3.49-0.361 5.23-0.542 10.1-1.05 20.2-2.07 30.4-2.92 3.62-0.0158 3.62-0.0158 6.63-1.6 2.24-0.36 4.49-0.661 6.75-0.938 0.685-0.085 1.37-0.17 2.08-0.258 1.46-0.18 2.92-0.358 4.38-0.534 2.2-0.266 4.4-0.537 6.6-0.81 6.83-0.84 13.6-1.65 20.5-2.21 1.73-0.077 1.73-0.077 2.7-1.25 1.35-0.199 2.71-0.337 4.07-0.449 0.866-0.0736 1.73-0.147 2.62-0.223 0.948-0.0761 1.9-0.152 2.87-0.23 0.979-0.0826 1.96-0.165 2.97-0.25 3.16-0.266 6.31-0.526 9.47-0.785 17-1.39 17-1.39 33.9-3.13 0.71-0.079 1.42-0.158 2.15-0.239 3.24-0.16 3.24-0.16 5.91-1.69 2.11-0.289 4.23-0.517 6.35-0.719 0.651-0.0628 1.3-0.126 1.97-0.19 1.39-0.133 2.78-0.264 4.17-0.393 2.07-0.192 4.14-0.392 6.21-0.592 23.9-2.28 23.9-2.28 35.2-2.17 1.16 0.00902 2.33 0.018 3.53 0.0273l2.54 0.0352v-2c0.749-0.0604 1.5-0.121 2.27-0.183 7.05-0.569 14.1-1.14 21.1-1.72 3.62-0.297 7.25-0.593 10.9-0.884 3.5-0.281 6.99-0.567 10.5-0.856 1.99-0.163 3.98-0.322 5.96-0.48 1.8-0.15 1.8-0.15 3.64-0.303 1.06-0.0866 2.13-0.173 3.22-0.262 2.35-0.0553 2.35-0.0553 3.4-1.31 2.35-0.205 4.67-0.346 7.03-0.449 0.74-0.036 1.48-0.072 2.24-0.109 2.48-0.119 4.97-0.232 7.45-0.344 1.75-0.0825 3.51-0.165 5.26-0.249 4.72-0.222 9.43-0.438 14.2-0.653 2.92-0.133 5.83-0.268 8.75-0.404 19.4-0.904 38.8-1.78 58.2-2.46 0.67-0.0236 1.34-0.0471 2.03-0.0714 6.73-0.235 13.5-0.456 20.2-0.661 1.08-0.0344 2.16-0.0688 3.27-0.104 1.98-0.0628 3.96-0.122 5.94-0.176 4.07 0.27 4.07 0.27 7.48-1.32 4.73-0.543 9.5-0.772 14.2-1.06 0.709-0.0442 1.42-0.0884 2.15-0.134 10.7-0.652 21.3-1.02 32-1.05 1.24-0.0091 2.48-0.0182 3.76-0.0276 1.14 0.00395 2.28 0.0079 3.45 0.012 1 0.00226 2 0.00451 3.03 0.00684 2.38 0.259 2.38 0.259 4.38 2.26 2.15 3.34 2.5 6.07 2 10-1.79 2.09-3.33 2.89-6.05 3.33-2.64 0.198-5.27 0.297-7.92 0.368-0.982 0.0378-1.96 0.0756-2.98 0.114-3.15 0.118-6.29 0.217-9.44 0.315-3.11 0.109-6.22 0.222-9.33 0.337-1.93 0.0699-3.86 0.136-5.8 0.197-5.13 0.171-10.2 0.453-15.3 0.837-6.96 0.516-13.9 0.792-20.9 1-2.54 0.0832-5.08 0.167-7.62 0.25-3.95 0.127-7.9 0.252-11.8 0.375-3.85 0.121-7.69 0.248-11.5 0.375-1.78 0.0532-1.78 0.0532-3.6 0.107-1.1 0.0367-2.19 0.0735-3.32 0.111-0.964 0.0303-1.93 0.0606-2.92 0.0918-2.57 0.102-2.57 0.102-5.43 1.19-9.68 0.946-19.4 1.18-29.1 1.44-12.2 0.358-24.5 0.902-36.7 1.56-0.789 0.0419-1.58 0.0838-2.39 0.127-13.9-0.594-13.9-0.594-25.8 2.87-1.89 0.237-3.78 0.409-5.67 0.557-1.22 0.0968-2.43 0.194-3.68 0.293-1.34 0.102-2.68 0.204-4.03 0.306-1.38 0.108-2.76 0.216-4.13 0.325-3.65 0.286-7.29 0.567-10.9 0.847-3.66 0.282-7.31 0.569-11 0.855-5.41 0.423-10.8 0.843-16.2 1.26-1.21 0.0937-2.42 0.187-3.67 0.284-2.57 0.19-5.13 0.369-7.7 0.532-1.27 0.0827-2.55 0.165-3.86 0.251-1.15 0.0708-2.3 0.142-3.49 0.214-2.55-0.0112-2.55-0.0112-3.63 1.28-2.15 0.278-4.31 0.493-6.46 0.684-0.661 0.0598-1.32 0.12-2 0.181-2.16 0.195-4.31 0.384-6.47 0.573-2.94 0.263-5.88 0.53-8.82 0.797-1.08 0.098-1.08 0.098-2.19 0.198-5.49 0.502-11 1.1-16.4 1.76-5.91 0.7-11.7 1-17.6 0.812v2c-12.7 1.28-25.3 2.26-38 2.66-8.54-0.337-8.54-0.337-16 2.34-1.53 0.275-3.07 0.492-4.61 0.684-0.973 0.122-1.95 0.244-2.95 0.37-1.05 0.127-2.11 0.254-3.19 0.384-1.07 0.132-2.14 0.264-3.24 0.4-8.21 0.994-16.4 1.83-24.7 2.52-4-0.0197-4-0.0197-7.34 1.65-2.01 0.3-4.03 0.54-6.05 0.754-1.86 0.198-1.86 0.198-3.75 0.4-1.3 0.135-2.61 0.269-3.95 0.408l-3.91 0.42c-10.5 1.11-10.5 1.11-15.3 1.02 1.49 2.97 1.49 2.97 3 6h2c0.112 0.696 0.224 1.39 0.34 2.11 0.741 3.24 1.92 6.08 3.22 9.14 3.97 10.3 2.75 16.8-1.56 26.8-1.68 3.79-3.71 5.47-7 8-0.33 0.66-0.66 1.32-1 2-1.97 0.93-1.97 0.93-4.5 1.88-3.4 1.29-6.63 2.68-9.88 4.31-8.11 3.62-17.3 3.73-25.6 0.812-4.9-2-9.59-4.06-14-7v-3c-1.02-0.0619-1.02-0.0619-2.06-0.125-3.6-1.07-5.49-2.86-8.19-5.4-1.7-1.55-1.7-1.55-3.84-2.52-2.75-1.38-4.05-3.53-5.91-5.95-2.42-2.48-4.89-4.89-7.38-7.3-3.43-3.52-6.4-7.32-9.44-11.2-1.96-2.27-3.62-3.99-6.18-5.52-2.34 0.239-4.68 0.595-7 1-3.67 0.0989-7.33 0.0597-11 0v2c-1.9 0.211-1.9 0.211-3.84 0.427-4.72 0.527-9.43 1.06-14.2 1.6-2.04 0.231-4.08 0.46-6.11 0.687-2.94 0.327-5.87 0.662-8.81 0.998-0.904 0.099-1.81 0.198-2.74 0.3-3.71 0.431-7.12 0.922-10.7 1.99-5.23 1.44-10.5 1.79-15.9 2.25-1.16 0.106-2.33 0.212-3.53 0.321-3.7 0.336-7.4 0.663-11.1 0.988-3.72 0.33-7.45 0.662-11.2 0.999-2.31 0.209-4.63 0.414-6.94 0.614-1.04 0.0936-2.08 0.187-3.15 0.284-0.918 0.0806-1.84 0.161-2.78 0.244-2.07 0.0816-2.07 0.0816-3.09 1.3-1.4 0.233-2.81 0.408-4.23 0.557-0.898 0.0968-1.8 0.194-2.72 0.293-0.976 0.101-1.95 0.202-2.96 0.306-1.49 0.161-1.49 0.161-3.02 0.325-4.28 0.461-8.55 0.911-12.8 1.36-3.11 0.33-6.23 0.665-9.34 1-0.976 0.101-1.95 0.202-2.96 0.306-0.898 0.0968-1.8 0.194-2.72 0.293-1.19 0.125-1.19 0.125-2.41 0.253-1.84 0.124-1.84 0.124-2.82 1.3-1.74 0.265-3.49 0.469-5.24 0.648-1.68 0.175-1.68 0.175-3.39 0.354-1.22 0.123-2.43 0.246-3.69 0.373-1.86 0.194-1.86 0.194-3.76 0.392-4.65 0.486-9.31 0.964-14 1.44-4.55 0.467-9.11 0.941-13.7 1.42-1.22 0.123-2.43 0.246-3.69 0.373-1.68 0.175-1.68 0.175-3.39 0.354-0.99 0.101-1.98 0.203-3 0.307-2.21 0.11-2.21 0.11-3.24 1.34-2.71 0.409-5.41 0.764-8.13 1.09-1.69 0.211-3.38 0.422-5.08 0.633-2.67 0.329-5.34 0.654-8.01 0.974-2.58 0.31-5.15 0.632-7.73 0.956-0.787 0.0907-1.57 0.181-2.38 0.275-3.89 0.497-7.34 1.22-11 2.66-4.22 1.63-6.38 1.85-10.7 0.419-1.94-3.06-1.94-3.06-3-6 1.64-3.6 2.86-5.43 6.45-7.22 6.82-2.4 13.6-3.55 20.8-4.39 2.65-0.102 2.65-0.102 3.74-1.39 3.08-0.434 6.16-0.813 9.25-1.16 1.39-0.161 1.39-0.161 2.81-0.325 3.99-0.461 7.98-0.911 12-1.36 2.91-0.33 5.81-0.665 8.71-1 0.91-0.101 1.82-0.202 2.76-0.306 4.08-0.107 4.08-0.107 7.49-1.85 1.35-0.238 2.71-0.418 4.07-0.573 1.3-0.15 1.3-0.15 2.62-0.303 0.945-0.104 1.89-0.208 2.86-0.316 0.971-0.11 1.94-0.219 2.94-0.332 2.07-0.232 4.13-0.461 6.2-0.688 3.13-0.346 6.26-0.702 9.39-1.06 2.01-0.224 4.02-0.447 6.03-0.67 0.924-0.106 1.85-0.212 2.8-0.322 6.38-0.689 12.7-0.855 19.1-0.737v-2c5.35-0.577 10.7-1.15 16.1-1.71 1.82-0.192 3.63-0.386 5.45-0.582 19.4-2.09 19.4-2.09 28.5-1.71v-2c1.14-0.116 2.29-0.232 3.47-0.351 4.27-0.433 8.54-0.867 12.8-1.3 1.84-0.188 3.69-0.375 5.53-0.562 2.66-0.269 5.32-0.54 7.98-0.812 0.817-0.0823 1.63-0.165 2.48-0.249 7.92-0.166 7.92-0.166 14.7-2.72 2.49-0.374 4.97-0.692 7.47-0.973 0.756-0.0874 1.51-0.175 2.29-0.265 1.61-0.184 3.22-0.367 4.82-0.547 2.44-0.274 4.88-0.558 7.31-0.843 1.56-0.178 3.13-0.356 4.69-0.533 0.721-0.0844 1.44-0.169 2.19-0.256 4.77-0.526 9.42-0.657 14.2-0.584-1.07-6.01-2.84-9.45-6.68-14.2-1.6-2.21-2-4.14-2.32-6.83-0.66-0.33-1.32-0.66-2-1-0.887-1.78-0.887-1.78-1.69-3.94-0.272-0.71-0.544-1.42-0.824-2.15-0.488-1.91-0.488-1.91 0.512-3.91-1.42 0.285-2.83 0.578-4.25 0.875-0.789 0.162-1.58 0.325-2.39 0.492-2.38 0.551-2.38 0.551-4.47 1.7-1.89 0.93-1.89 0.93-4.89 0.93v2c-1.61 1.52-1.61 1.52-3.75 3.25-2.65 2.23-4.79 4.24-6.62 7.19l-1.62 2.56h-2c-0.33 0.99-0.66 1.98-1 3-3.94 2.25-6.66 2.06-11 1-0.66-0.33-1.32-0.66-2-1v-3h-2c-1.12-6.75-1.12-6.75 0-9-2.69 0.739-5.38 1.49-8.06 2.25-0.752 0.205-1.5 0.41-2.28 0.621-3.77 1.08-7.09 2.25-10.5 4.25-3.67 2.16-6.01 2.53-10.2 2.88v2c-2.25 0.673-4.5 1.34-6.75 2-1.25 0.371-2.51 0.742-3.8 1.12-3.45 0.875-3.45 0.875-7.45 0.875v2l-3.25 0.375c-3.54 0.386-3.54 0.386-5.63 1.62-8.09 3.82-20.6 2.15-29.4 2.25-1.11 0.0214-2.22 0.0429-3.36 0.0649-9.06 0.0367-16.2-1.31-23.6-6.75-0.801-0.576-1.6-1.15-2.43-1.75-4.74-3.81-7.41-7.52-10.3-12.8-3.7 0.866-7.21 2.1-10.8 3.38-2.22 0.621-2.22 0.621-6.22 0.621v2c-7.2 1.89-14.3 2.25-21.8 2.31-0.899 0.0174-1.8 0.0348-2.72 0.0527-6.39-0.00474-11.1-0.942-16.4-4.68-1.61-2.42-1.71-4.84-2.12-7.69-0.66-0.99-1.32-1.98-2-3-0.555-2.27-0.945-4.54-1.34-6.84-0.492-2.22-0.492-2.22-2.13-3.6-2.09-2.14-2.37-4.1-3.03-7-0.911-3.99-2.04-6.34-4.5-9.56v-3c-0.66-0.33-1.32-0.66-2-1-3-5.42-3-5.42-3-8h-2c-2.04-2.91-3-4.4-3-8h-3v-3c-0.59-0.0889-1.18-0.178-1.79-0.27-2.78-0.92-3.71-2.19-5.59-4.42-6.25-6.49-16.1-11-25.2-11.5-14.6 0.994-27.6 6.2-38.5 16.2-1.21 2.56-1.21 2.56-2 5-0.598 0.557-1.2 1.11-1.81 1.69-5.38 5.68-9.19 14.5-9.19 22.3 0.71 0.133 1.42 0.266 2.15 0.402 0.919 0.177 1.84 0.353 2.79 0.535 1.37 0.261 1.37 0.261 2.78 0.527 2.29 0.535 2.29 0.535 3.29 1.54 2.2 0.516 4.41 0.988 6.62 1.44 4.87 1.01 9.63 2.09 14.4 3.56v2c0.887 0.103 1.77 0.206 2.69 0.312 3.4 0.705 5.53 1.64 8.31 3.69v2c0.908 0.103 1.82 0.206 2.75 0.312 3.28 0.694 4.86 1.39 7.25 3.69v2c0.959 0.402 0.959 0.402 1.94 0.812 2.06 1.19 2.06 1.19 3.06 4.19 1.33 0.677 2.66 1.34 4 2 4.54 4.93 7.88 10.6 10 17 0.371 0.763 0.742 1.53 1.12 2.31 1.12 3.43 0.949 5.25-0.125 8.69-3.44 4.22-7.43 7.62-13 8.21-3.44 0.0574-6.7-0.123-9.98-1.21v-2c-0.887 0.0825-1.77 0.165-2.69 0.25-5.95 0.0245-11.8-2.08-17.3-4.25-0.33-0.66-0.66-1.32-1-2-1.67-0.734-3.34-1.46-5.03-2.14-3.14-1.36-6.02-3.13-8.97-4.86-1.33-0.68-2.66-1.35-4-2v-2c-0.66-0.186-1.32-0.371-2-0.562-5.72-2.74-10.2-6.73-13-12.4-0.995-1.01-1.99-2.01-3-3-0.968-1.47-1.88-2.97-2.75-4.5-0.673-1.16-0.673-1.16-1.36-2.34-0.891-2.16-0.891-2.16 0.109-5.16-7.29 1.27-13.9 2.99-20.6 6.25-4.36 1.34-8.07 0.385-12.1-1.5-2.62-1.98-4.35-4.13-6.31-6.75-0.866-0.835-0.866-0.835-1.75-1.69-1.25-1.31-1.25-1.31-1.25-3.31-0.99-0.33-1.98-0.66-3-1-0.33-0.66-0.66-1.32-1-2-11.8-5.96-28.8-3.92-41 0-1.69 0.963-3.36 1.96-5 3-1.98 0.711-3.98 1.39-6 2v2c-0.519 0.242-1.04 0.485-1.57 0.734-3.24 1.56-6.11 3.01-8.93 5.27-2.2 1.76-3.98 2.77-6.5 3.94-3.73 1.77-6.15 4.05-9 7.06-0.99 0.33-1.98 0.66-3 1-0.413 0.474-0.825 0.949-1.25 1.44-3.52 3.15-7.93 3.52-12.5 3.75-3.28-0.189-5.37-0.37-7.82-2.65-4.02-4.95-5.12-8.66-5.23-15-0.214-2.65-0.866-4.24-2.2-6.52-0.578 0.161-1.16 0.323-1.75 0.489-2.83 0.642-5.61 0.669-8.49 0.751-9.38 0.286-16.8 1.46-24.8 6.76-3.85 0.21-7.31 0.18-11-1v-2c-0.619-0.103-1.24-0.206-1.88-0.312-2.12-0.688-2.12-0.688-4.12-3.69-0.437-1.71-0.808-3.45-1.12-5.19-0.168-0.901-0.335-1.8-0.508-2.73-0.121-0.687-0.242-1.37-0.367-2.08-5.32-0.793-10.6-1.43-16-2-0.66 0.99-1.32 1.98-2 3h-2c-0.147 0.545-0.294 1.09-0.445 1.65-1.87 6.27-4.7 11.1-8.55 16.3-0.522 0.715-1.04 1.43-1.58 2.17-1.45 1.96-2.93 3.9-4.42 5.83-0.742 0.99-1.48 1.98-2.25 3-0.578 0.66-1.15 1.32-1.75 2h-2c-0.0825 0.598-0.165 1.2-0.25 1.81-0.967 2.82-2.37 3.44-4.75 5.19-0.433 0.742-0.866 1.48-1.31 2.25-2.32 3.78-5.28 6.9-8.69 9.75h-2c-0.237 0.562-0.474 1.12-0.719 1.7-1.57 2.82-3.5 4.78-5.78 7.05-0.794 0.799-1.59 1.6-2.41 2.42-2.09 1.83-2.09 1.83-4.09 1.83-0.248 0.598-0.495 1.2-0.75 1.81-1.43 2.5-2.82 3.67-5.25 5.19h-2l-0.75 1.88c-1.47 2.5-2.66 2.96-5.25 4.12l-1 2c-0.721 0.423-1.44 0.846-2.18 1.28-3.34 2.04-6.06 4.54-8.88 7.22-9.03 8.5-9.03 8.5-12.9 8.5v2c-1.72 1.33-1.72 1.33-4.06 2.81-3.02 1.93-5.95 3.91-8.81 6.06-3.12 2.12-3.12 2.12-6.12 2.12v2c-0.857 0.459-1.71 0.918-2.6 1.39-3.47 1.86-6.94 3.73-10.4 5.61-0.788 0.424-1.58 0.848-2.39 1.29-3.4 1.74-3.4 1.74-5.61 4.71-1.41 0.865-2.85 1.67-4.31 2.44-2.38 1.25-4.55 2.45-6.67 4.1-2.24 1.63-4.36 2.51-6.95 3.46-3.61 1.39-6.81 2.89-10.1 5-4.77 2.81-9.62 5.33-14.6 7.77-2.08 1.06-4.09 2.17-6.11 3.35-3.37 1.91-6.74 3.4-10.3 4.88-4.08 1.77-8.14 3.57-12.1 5.56-2.07 1.03-4.18 1.98-6.31 2.88-3.58 1.48-3.58 1.48-6.81 3.5-5.25 3.09-11.6 6.06-17.8 6.06v2c-0.906 0.315-1.81 0.629-2.75 0.953-6.89 2.42-13.6 4.97-20.3 8.05-3.57 1.59-4.98 2-9 2v2c-0.906 0.315-1.81 0.629-2.75 0.953-6.89 2.42-13.6 4.97-20.3 8.05-3.57 1.59-4.98 2-9 2v2c-0.918 0.315-1.84 0.629-2.78 0.953-7.77 2.63-7.77 2.63-15.2 6.05-9.14 4.84-21.5 10-32 10v2c-12.6 2.71-12.6 2.71-17 1-2.62-2.5-2.62-2.5-4-6 0.772-3.33 2.3-6.06 4-9l1.62-3.25c3.44-3.99 7.64-5.61 12.4-7.75 2.45-1.37 4.76-2.83 7.05-4.45 6.81-4.74 6.81-4.74 10.9-5.74 0.99-0.268 1.98-0.536 3-0.812l1-3c3.7-2.22 5.63-3 10-3l1-3c4.93-3.61 13.8-10 20-10 0.33-0.99 0.66-1.98 1-3 1.93-1.28 1.93-1.28 4.31-2.5 2.41-1.24 4.6-2.43 6.76-4.06 2.73-2.04 5.8-3.1 8.93-4.44 0.66-0.495 1.32-0.99 2-1.5 1.9-1.43 3.5-2.18 5.69-3.06 3.39-1.05 3.39-1.05 4.31-3.44 1.41-0.865 2.85-1.67 4.31-2.44 2.41-1.27 4.61-2.5 6.78-4.15 1.91-1.41 1.91-1.41 5.09-2.6 3.33-1.34 5.52-3.23 8.12-5.69 3.88-3.62 7.67-5.84 12.5-8.04 2.73-1.34 4.86-3.18 7.21-5.09 1.63-0.685 3.26-1.37 4.91-2.02 3.69-1.73 7.04-4.03 10.4-6.26 3.58-2.32 7.22-4.48 11-6.53 3.51-1.99 6.64-4.35 9.84-6.81 1.85-1.38 1.85-1.38 4.6-3 2.3-1.28 2.3-1.28 4-3.19 5-4.86 11.1-8.09 17.2-11.2 0.33-0.66 0.66-1.32 1-2 1.39-0.843 2.81-1.63 4.25-2.38 2.75-1.47 5-2.83 7.44-4.81 2.65-2.08 5.09-2.91 8.31-3.81v-2c1.41-0.98 2.82-1.95 4.27-2.87 2.84-1.86 5.45-4.02 8.11-6.13 4.68-3.67 9.24-6.5 14.6-9l2.81-2.25c2.19-1.75 2.19-1.75 5.19-1.75l1-3c5.37-4 5.37-4 8-4l1-3c1.67-1.25 1.67-1.25 3.75-2.44 2.54-1.5 4.74-2.96 7.06-4.81 2.19-1.75 2.19-1.75 5.19-2.75l2-3c1.99-1.25 1.99-1.25 4.31-2.44 2.81-1.49 5.06-2.87 7.56-4.88 2.12-1.69 2.12-1.69 5.12-1.69l1-3c5.37-4 5.37-4 8-4 0.33-0.99 0.66-1.98 1-3 2.07-1.46 2.07-1.46 4.69-2.94l2.73-1.58c0.851-0.49 1.7-0.98 2.58-1.48 3.32-2.06 6.3-4.16 9-7 0.66-0.33 1.32-0.66 2-1v-3c-2.56-2.4-5.09-4.05-8.2-5.69-4.43-2.51-7.91-5.85-11.6-9.38-0.692-0.661-1.38-1.32-2.1-2-1.4-1.34-2.79-2.68-4.18-4.02-1.81-1.75-3.63-3.48-5.46-5.2-1.01-0.965-2.01-1.93-3.02-2.9l-2.66-2.54c-1.84-2.27-1.84-2.27-1.84-6.27-1.64-1.69-3.31-3.35-5-5-1.19-2.5-1.19-2.5-2-5l-2-5h-2c-2.74-8.23-1.77-18.3 2-26h2l0.5-2.5c2.93-6.84 8.64-11.7 15.5-14.5 1.13-0.516 2.27-1.03 3.44-1.56 7.27-2.93 13.4-3.77 21.3-4.19 2.86-0.213 5.51-0.609 8.3-1.25v2c0.887-0.0825 1.77-0.165 2.69-0.25 8.01 0 17.2 3.02 23.3 8.25v2c0.557 0.206 1.11 0.412 1.69 0.625 8.39 4.99 13.3 16.5 16.3 25.4 0.884 3.75 1.18 7.33 1.32 11.2 0.0419 1.16 0.0838 2.31 0.127 3.51 0.0393 1.2 0.0786 2.4 0.119 3.63 0.0432 1.22 0.0864 2.44 0.131 3.69 0.106 3 0.208 6 0.307 9 1.8-1.26 3.59-2.54 5.38-3.81 1.5-1.06 1.5-1.06 3.02-2.14 5.02-3.95 5.11-7.76 5.84-13.7 0.799-3.48 2.08-6.1 3.73-9.24 1.64-3.3 2.72-6.75 3.84-10.3 0.514-1.58 1.03-3.15 1.54-4.73 0.266-0.823 0.532-1.65 0.806-2.49 1.47-4.54 2.96-9.06 4.46-13.6 0.415-1.27 0.415-1.27 0.839-2.57 2.7-8.16 5.82-16.1 9.47-23.9 0.51-1.09 1.02-2.19 1.55-3.32 0.5-1.07 1-2.14 1.52-3.25 2.74-5.97 5.43-12 8-18 0.642-1.48 1.29-2.96 1.94-4.44 0.298-0.679 0.596-1.36 0.902-2.06 2.95-6.38 6.24-12.5 9.72-18.6 2.09-3.67 4.17-7.32 6.03-11.1 1.29-2.52 2.7-4.52 4.41-6.76 3.6-6.19 6.85-12.6 10-19h2c0.289-0.578 0.577-1.16 0.875-1.75 1.56-3.13 1.56-3.13 3.12-6.25h2c0.289-0.742 0.577-1.48 0.875-2.25 0.948-2.32 1.97-4.53 3.12-6.75h2c0.248-0.722 0.495-1.44 0.75-2.19 1.37-3.09 2.97-5.32 5.25-7.81h2c0.264-0.581 0.529-1.16 0.801-1.76 3.56-6.65 9.85-12 15.2-17.2 0.866-0.866 1.73-1.73 2.62-2.62 0.784-0.784 1.57-1.57 2.38-2.38 0.722-0.784 1.44-1.57 2.19-2.38 5.59-5.22 11.9-9.39 18.8-12.6 3.93-2.12 7.83-4.28 11.6-6.62 7.64-4.42 14.8-6.68 23.4-3.12zm-31 22.7c-0.837 0.571-1.67 1.14-2.54 1.73-6.34 4.38-11.9 8.53-16.9 14.5-1.63 1.82-3.34 3.31-5.23 4.86-3.18 2.64-5.14 5.44-7.38 8.94-2.77 3.35-5.68 6.59-8.66 9.76-5.96 6.48-10.6 13.9-15.3 21.2-0.69 1.06-1.38 2.11-2.09 3.2-2.91 4.5-5.59 8.96-7.91 13.8-2.89 5.63-5.9 11-9.62 16.1-3.19 4.44-5.3 8.85-7.38 13.9-2.92 6.49-5.94 12.9-9.19 19.2-2.13 4.2-3.79 8.31-5.17 12.8-0.925 2.8-2.31 5.33-3.64 7.95-0.77 1.93-1.48 3.88-2.2 5.84-0.82 2.2-1.71 4.37-2.62 6.54-2.82 7-5.1 14.2-7.45 21.4-1.01 3.08-2.05 6.14-3.09 9.21-0.215 0.675-0.429 1.35-0.651 2.05-0.352 1.06-0.352 1.06-0.711 2.14-0.143 0.922-0.143 0.922-0.289 1.86 0.66 0.66 1.32 1.32 2 2 6.78-5.2 13.4-10.6 20-16 1.09-0.886 2.17-1.77 3.26-2.66 1.08-0.885 2.16-1.77 3.24-2.66 0.98-0.801 1.96-1.6 2.97-2.43 2.54-2.12 2.54-2.12 4.19-4.49 1.34-1.77 1.34-1.77 4.34-2.77 2.75-2.53 5.11-5.14 7.44-8.06 2.56-2.94 2.56-2.94 5.38-4.79 3.3-2.22 5.92-4.62 8.73-7.43 0.497-0.495 0.995-0.991 1.51-1.5 1.04-1.04 2.08-2.08 3.12-3.13 1.58-1.59 3.18-3.18 4.77-4.76 1.01-1.02 2.03-2.03 3.04-3.05 1.37-1.38 1.37-1.38 2.77-2.78 1.96-2.19 3-3.9 4.24-6.5 2-1.67 4-3.33 6-5 0.311-0.641 0.621-1.28 0.941-1.94 1.64-3.19 4.33-4.96 7.09-7.18 2.22-2.12 3.41-4.24 4.97-6.88 2.48-3.26 5.11-6.4 7.71-9.56 0.782-0.962 0.782-0.962 1.58-1.94 0.473-0.576 0.946-1.15 1.43-1.74 1.35-1.74 1.35-1.74 2.26-3.85 1.02-1.91 1.02-1.91 4.02-3.91 0.983-1.67 1.96-3.35 2.88-5.05 1.17-2.03 2.47-3.88 3.87-5.76 2.44-2.81 2.44-2.81 2.25-5.19h2c0.437-0.891 0.437-0.891 0.883-1.8 2.28-4.6 4.62-9.15 7.12-13.6 4.41-8.05 8.09-15.9 10.3-24.9 0.676-2.7 0.676-2.7 1.75-5.83 1.22-5.1 1.18-9.9 1.12-15.1-6.45e-4 -0.993-0.00129-1.99-0.00195-3.01 0.0103-5.46 0.0103-5.46-1.19-10.7-9.58-7.19-21.5 1.14-30 7zm32 6 1 2zm-239 165c-9.23 0.244-19.3 4.93-26.2 11.1-3.52 5.31-6.05 10.6-5 17 1.47 4.12 2.88 7.88 6 11 0.728 1.39 1.43 2.78 2.12 4.19 2.34 4.31 5.02 7.04 8.81 10.1 2.75 2.28 5.17 4.83 7.62 7.42 1.37 1.51 1.37 1.51 3.45 1.29v2c1.99 1.35 3.99 2.68 6 4 0.598 0.639 1.2 1.28 1.81 1.94 2.72 2.56 5.67 4.09 8.97 5.82 2.22 1.25 2.22 1.25 4.29 2.9 2.01 1.68 2.01 1.68 5.37 1.35 4.28-1.2 5.63-2.71 8.56-6 1.23-0.875 2.46-1.75 3.69-2.62 4.56-3.93 4.68-8.63 5.31-14.4 0.229-4.17 0.236-8.32 0.188-12.5-6.45e-4 -1.05-0.00129-2.1-0.00195-3.18-0.0379-6.82-0.454-13.5-1.19-20.3l-3-1-0.625-2.56c-2.96-7.4-10.6-12.3-17.6-15.5-6.08-2.01-12.2-1.81-18.5-1.97zm500 24.9c-0.908 0.708-1.82 1.42-2.75 2.14-2.48 1.92-2.48 1.92-3.25 5.04-1.33 0.667-2.67 1.33-4 2-1.58 1.77-1.58 1.77-3 4-0.594 0.883-1.19 1.77-1.8 2.68l-2.2 3.32c-0.993 1.47-1.99 2.95-2.98 4.42-1.07 1.59-2.14 3.18-3.21 4.77-0.511 0.76-1.02 1.52-1.55 2.3-6.12 9.18-10.5 18.4-14.2 28.7-0.985 2.6-2.1 5.08-3.3 7.59-1.61 3.53-2.33 6.25-1.75 10.2 0.66 0.66 1.32 1.32 2 2 1.59-1.2 3.17-2.41 4.75-3.62l2.67-2.04c2.82-2.55 4.54-5.13 6.58-8.34 2.13-2.85 4.34-5.62 6.55-8.41 1.98-2.53 3.42-4.52 4.45-7.59 0.994-1.01 2-2 3-3 6.92-10.4 11.9-21.6 16-33.4 0.652-1.79 1.35-3.57 2.08-5.32 0.993-2.61 0.954-4.55 0.883-7.32 0.29-1.34 0.61-2.68 1-4-2.17 0-4.41 2.56-6 3.81zm-438 43.2-2 3 4-2c-0.66-0.33-1.32-0.66-2-1zm-5 3-2 3-2.38 1.38c-4.52 2.8-7.11 6.56-8.62 11.6-0.168 2.71-0.168 2.71 0 5 1.43 0.674 2.87 1.34 4.31 2 0.801 0.371 1.6 0.742 2.43 1.12 2.32 1.06 2.32 1.06 5.26 0.875 2.16-7.97 4.3-15.9 6-24-1.65-0.33-3.3-0.66-5-1zm-48 18 1 2zm13 9c-0.33 0.66-0.66 1.32-1 2 0.99-0.33 1.98-0.66 3-1-0.66-0.33-1.32-0.66-2-1zm-2 2c-2.39 1.56-2.39 1.56-4.81 3.75-3.62 3.03-6.84 5.42-11.2 7.25v2c-0.73 0.257-1.46 0.513-2.21 0.777-2.91 1.28-4.97 2.77-7.41 4.79-2.57 2.11-4.19 3.38-7.38 4.44-1 0.997-2 2-3 3-1.75 1.18-3.52 2.32-5.31 3.44l-2.95 1.85-2.74 1.71c-4.13 2.37-4.13 2.37-7 6-2.31 1.05-4.64 2.06-7 3v2c-0.73 0.257-1.46 0.513-2.21 0.777-2.91 1.28-4.97 2.77-7.41 4.79-2.57 2.11-4.19 3.38-7.38 4.44-0.33 0.66-0.66 1.32-1 2-1.39 0.843-2.81 1.63-4.25 2.38-3.58 1.92-6.58 4.07-9.75 6.62-0.887 0.351-1.77 0.701-2.69 1.06-2.64 0.817-2.64 0.817-4.31 3.94-1.62 0.911-3.24 1.82-4.88 2.7-2.56 1.57-4.8 3.39-7.12 5.3-3.84 3.15-7.6 5.7-12 8v2c-0.559 0.0954-1.12 0.191-1.7 0.289-2.86 0.883-4.77 2.31-7.18 4.09-3.61 2.6-7.06 4.81-11.1 6.62v2c-0.557 0.0838-1.11 0.168-1.69 0.254-3.03 0.979-4.88 2.63-7.31 4.68-2.93 2.46-5.59 4.36-9 6.06-0.33 0.66-0.66 1.32-1 2-1.69 0.994-3.38 1.98-5.1 2.93-1.7 0.964-3.34 2.04-4.96 3.14-2.89 1.91-5.81 3.45-8.94 4.94v2c-1.1 0.402-1.1 0.402-2.22 0.812-2.71 1.16-4.87 2.49-7.28 4.19-3.07 2.16-5.97 3.71-9.5 5v2l-1.75 0.383c-2.28 0.623-4.21 1.44-6.32 2.49l-2.04 0.992c-1.98 1.18-3.33 2.47-4.9 4.13l-2.19 1.56-1.81 1.44v2c-0.576 0.121-1.15 0.242-1.75 0.367-7.1 1.99-13.5 7.04-19.7 11-3.14 1.99-6.34 3.84-9.6 5.65v2c-0.722 0.103-1.44 0.206-2.19 0.312-3.07 0.751-5.13 2.04-7.81 3.69-2.31 0.688-2.31 0.688-4 1v2c-0.681 0.227-1.36 0.454-2.06 0.688-3.08 1.38-5.47 3.07-8.16 5.08-2.45 1.7-5.12 2.9-7.78 4.23l-1 2c-2.55 1.09-5.14 1.99-7.75 2.9-0.742 0.362-1.48 0.724-2.25 1.1l-1 3 2.19-0.438c1.72-0.344 3.45-0.646 5.19-0.875 2.8-0.596 2.8-0.596 5.56-2.5 4.59-2.8 9.69-3.86 14.9-5.16 3.09-0.989 4.7-2.07 7.21-4.03 2.5-0.864 5-1.5 7.56-2.16 2.48-0.717 2.48-0.717 4.39-2.34 3.22-2.36 6.84-2.8 10.7-3.66l2.36-0.844c0.33-0.99 0.66-1.98 1-3 2.7-0.809 2.7-0.809 6.12-1.44 5.52-1.15 9.13-2.61 13.9-5.56 1.51-0.631 3.03-1.23 4.56-1.81 4.87-1.88 9.46-4.17 14.1-6.54 6.58-3.33 13.3-6.32 20.3-8.65v-2c1.07-0.289 2.14-0.578 3.25-0.875 2.84-0.853 5.19-1.69 7.75-3.12v-2l2.19-0.312c3.07-0.751 5.13-2.04 7.81-3.69 1.33-0.333 2.67-0.667 4-1 0.33-0.66 0.66-1.32 1-2 1.68-0.859 1.68-0.859 3.88-1.75 6.52-2.79 13.1-5.85 18.7-10.3 4.87-3.87 10.8-6.28 16.5-8.62 3.04-0.985 3.04-0.985 3.94-3.31 0.878-0.434 1.76-0.869 2.66-1.32 3.62-1.83 6.64-4.09 9.78-6.62 3.33-2.68 6.59-5.15 10.3-7.23 3.43-1.93 5.54-3.99 8.24-6.83 5.38-5.02 11.2-9.53 17-14 3.6-2.78 6.83-5.73 10-9 1.67-1.33 3.33-2.67 5-4 2.52-2.4 4.83-4.78 7-7.5 2.72-3.39 5.56-6.49 9.12-9 2-1.42 2-1.42 3.14-3.69 2.49-4.05 5.64-7.45 8.79-11 2.72-3.13 4.67-5.79 5.94-9.82h2c0.471-0.88 0.941-1.76 1.43-2.67l1.89-3.52c0.922-1.72 0.922-1.72 1.86-3.48 1.55-2.82 3.14-5.59 4.82-8.33-0.99-0.33-1.98-0.66-3-1zm589 4 1 3zm-556 6 1 2zm222 12c0.99 0.495 0.99 0.495 2 1 0.186 1.14 0.186 1.14 0.375 2.31 0.77 3.31 2.02 4.56 4.62 6.69h2c0.227 0.598 0.454 1.2 0.688 1.81 1.66 2.76 3.55 3.6 6.31 5.19 0.66 0.99 1.32 1.98 2 3 1.78 1.11 1.78 1.11 3.81 2 3.2 1.48 6.17 3.18 9.19 5 8.85 4.85 17.9 7 28 7-0.66-1.65-1.32-3.3-2-5h-3c-0.058-1.05-0.058-1.05-0.117-2.12-1.27-4.14-3.83-6.18-7.01-9.01-0.557-0.525-1.11-1.05-1.69-1.59-3.84-3.5-7.34-5.43-12.2-7.29-1.18-0.659-2.35-1.34-3.5-2.06-4.66-2.73-9.09-3.94-14.5-3.94v-2c-5.08-0.847-9.85-1.09-15-1zm355 28c0.33 1.32 0.66 2.64 1 4 0.33-0.66 0.66-1.32 1-2-0.66-0.66-1.32-1.32-2-2zm83.2 6.44c-1.47 0.145-1.47 0.145-2.96 0.294-1.05 0.106-2.11 0.212-3.19 0.322-1.08 0.109-2.16 0.217-3.28 0.329-2.28 0.23-4.57 0.462-6.85 0.694-3.51 0.355-7.02 0.705-10.5 1.05-2.22 0.224-4.43 0.449-6.65 0.674-1.06 0.104-2.11 0.208-3.2 0.316-0.971 0.1-1.94 0.2-2.94 0.303-0.859 0.0866-1.72 0.173-2.6 0.262-1.96 0.113-1.96 0.113-2.96 1.31-1.85 0.234-3.7 0.413-5.56 0.562-1.52 0.126-1.52 0.126-3.07 0.254l-2.37 0.184c1.15 2.47 2.05 4.05 4 6 0.878 1.06 1.75 2.12 2.62 3.19 3.44 4.04 7.33 7.4 11.4 10.8 0.647 0.574 1.29 1.15 1.96 1.74 0.611 0.54 1.22 1.08 1.85 1.64 0.543 0.482 1.09 0.964 1.64 1.46 1.66 1.38 1.66 1.38 4.54 2.16 0.825 1.01 1.65 2.02 2.5 3.06 1.24 1.45 1.24 1.45 2.5 2.94h3c0.33 0.99 0.66 1.98 1 3 8.86 3.69 17.8 3.33 27 1 0.99-0.66 1.98-1.32 3-2v-2c0.722-0.0412 1.44-0.0825 2.19-0.125 4.08-1.27 5.3-3.45 7.81-6.88 1.83-3.66 1.27-7.98 1-12-0.85-2.75-0.85-2.75-2-5-0.0761-0.75-0.152-1.5-0.23-2.27-1.06-3.76-3.4-5.91-6.14-8.54-0.495-0.502-0.99-1-1.5-1.52-4.13-4.06-6.46-3.77-11.9-3.22zm19.8 13.6 1 2zm1 3 1 3zm-1011 124c0.66 0.66 1.32 1.32 2 2v-2h-2zm-8 4c2.49 1.25 3.41 0.777 6 0v-2c-2.46 0-3.85 0.855-6 2z" fill="#F0F1F2"/>
<path transform="translate(255,427)" d="m0 0v2c-1.34 0.965-2.7 1.92-4.1 2.8-1.35 0.854-2.67 1.74-3.98 2.66-4.4 3.06-8.69 5.43-13.6 7.5-2.42 1.11-4.6 2.39-6.85 3.8-6.22 3.83-12.8 6.98-19.3 10.2-2.14 1.06-4.27 2.12-6.4 3.2-6.07 3.06-12.1 6.12-18.4 8.81-2.48 1.09-4.92 2.25-7.36 3.41-8.85 4.19-17.9 8-26.9 11.8-1.97 0.826-3.94 1.67-5.91 2.52-2.43 1.04-4.84 2.02-7.32 2.93-0.669 0.249-1.34 0.498-2.03 0.754-0.61 0.226-1.22 0.451-1.85 0.684-2.69 1-4.99 1.99-7.44 3.5-2.81 1.64-5.47 2.47-8.56 3.5-1.76 0.8-3.51 1.61-5.25 2.44-13.6 6.27-13.6 6.27-18.8 4.56 4.29-3.78 9.26-4.56 14.7-5.94 3.15-1.01 4.77-2.07 7.31-4.06 2.5-0.864 5-1.5 7.56-2.16 2.49-0.718 2.49-0.718 4.4-2.34 3.17-2.33 6.69-2.79 10.5-3.66 2.75-0.907 3.57-1.84 5.56-3.84 2.45-0.809 2.45-0.809 5.25-1.44 4.15-1.04 7.37-2.28 11-4.54 2.05-1.18 4.13-1.99 6.34-2.84 4.24-1.64 8.26-3.56 12.3-5.62 16.8-8.56 16.8-8.56 22.1-8.56v-2c1.27-0.674 2.54-1.34 3.81-2 0.708-0.371 1.42-0.743 2.14-1.12 2.04-0.875 2.04-0.875 5.04-0.875v-2c1.73-0.716 3.45-1.43 5.18-2.15 2.09-0.92 2.09-0.92 4.82-2.85h4c0.33-0.99 0.66-1.98 1-3 1.68-0.957 1.68-0.957 3.88-1.81 7.59-3.17 14.8-6.84 21.1-12.2 3.5-2 3.5-2 6-2z"/>
<path transform="translate(177,429)" d="m0 0c0.99 0.33 1.98 0.66 3 1-5.91 4.08-12 7.8-18.2 11.4-2.62 1.51-5.21 3.06-7.8 4.61-0.743 0.413-1.49 0.825-2.25 1.25-2.43 1.55-4.57 3.19-6.81 5-4.45 3.53-9.17 6.28-14.1 9.07-2.38 1.42-4.44 2.87-6.57 4.62-4.39 3.45-9.33 5.68-14.3 8.1-5.3 2.59-10.1 5.57-14.9 8.96-6.3 4.16-12.7 7.98-19.4 11.5-2.58 1.45-4.96 3.04-7.38 4.73-3.7 2.54-6.87 3.82-11.2 4.75 1-3 1-3 3.81-4.69 3.19-1.31 3.19-1.31 7.19-1.31 0.33-0.99 0.66-1.98 1-3 4.93-3.61 13.8-10 20-10 0.33-0.99 0.66-1.98 1-3 1.93-1.28 1.93-1.28 4.31-2.5 2.41-1.24 4.6-2.43 6.76-4.06 2.73-2.04 5.8-3.1 8.93-4.44 0.99-0.743 0.99-0.743 2-1.5 1.9-1.43 3.5-2.18 5.69-3.06 3.39-1.05 3.39-1.05 4.31-3.44 1.41-0.865 2.85-1.67 4.31-2.44 2.41-1.27 4.61-2.5 6.78-4.15 1.91-1.41 1.91-1.41 5.09-2.6 3.33-1.34 5.52-3.23 8.12-5.69 3.88-3.62 7.67-5.84 12.5-8.04 2.73-1.34 4.86-3.18 7.21-5.09 2.32-1.02 4.66-2.02 7-3 0.743-0.577 1.49-1.15 2.25-1.75 0.577-0.413 1.16-0.825 1.75-1.25z"/>
<path transform="translate(57,505)" d="m0 0c-2.25 2.78-4.73 3.75-7.99 5.06-2.26 1.06-4.2 2.34-6.26 3.75-13.4 9.19-13.4 9.19-17.8 9.19 1-3 1-3 3.11-4.28 0.871-0.402 1.74-0.804 2.64-1.22 0.911-0.434 1.82-0.869 2.76-1.32 0.821-0.391 1.64-0.781 2.49-1.18 2.46-1.38 4.79-2.86 7.12-4.45 0.785-0.534 1.57-1.07 2.38-1.62 0.732-0.507 1.46-1.01 2.22-1.54 6.32-3.88 6.32-3.88 9.28-2.4z"/>
<path transform="translate(91,505)" d="m0 0c-2.3 3.45-2.98 3.56-6.81 4.56-3.5 0.963-6.85 1.99-10.2 3.44v-4c0.804-0.155 0.804-0.155 1.62-0.312 2.53-0.636 2.53-0.636 5.19-2.25 3.64-1.64 6.24-1.67 10.2-1.44z" fill="#2B2C2C"/>
<path transform="translate(323,235)" d="m0 0 1 4z"/>
<path transform="translate(85,504)" d="m0 0 2 1z"/>
</svg>
